HIERARCHY
ROOT Hips
{
	OFFSET 0.00000 0.00000 0.00000
	CHANNELS 6 Xposition Yposition Zposition Zrotation Yrotation Xrotation 
	JOINT LHipJoint
	{
		OFFSET 0 0 0
		CHANNELS 3 Zrotation Yrotation Xrotation
		JOINT LeftUpLeg
		{
			OFFSET 1.42489 -1.84941 0.69647
			CHANNELS 3 Zrotation Yrotation Xrotation
			JOINT LeftLeg
			{
				OFFSET 2.44443 -6.71602 0.00000
				CHANNELS 3 Zrotation Yrotation Xrotation
				JOINT LeftFoot
				{
					OFFSET 2.62838 -7.22137 0.00000
					CHANNELS 3 Zrotation Yrotation Xrotation
					JOINT LeftToeBase
					{
						OFFSET 0.24036 -0.66037 2.29953
						CHANNELS 3 Zrotation Yrotation Xrotation
						End Site
						{
							OFFSET 0.00000 -0.00000 1.19837
						}
					}
				}
			}
		}
	}
	JOINT RHipJoint
	{
		OFFSET 0 0 0
		CHANNELS 3 Zrotation Yrotation Xrotation
		JOINT RightUpLeg
		{
			OFFSET -1.37055 -1.84941 0.69647
			CHANNELS 3 Zrotation Yrotation Xrotation
			JOINT RightLeg
			{
				OFFSET -2.54834 -7.00152 0.00000
				CHANNELS 3 Zrotation Yrotation Xrotation
				JOINT RightFoot
				{
					OFFSET -2.65692 -7.29983 0.00000
					CHANNELS 3 Zrotation Yrotation Xrotation
					JOINT RightToeBase
					{
						OFFSET -0.18839 -0.51760 2.29390
						CHANNELS 3 Zrotation Yrotation Xrotation
						End Site
						{
							OFFSET -0.00000 -0.00000 1.18261
						}
					}
				}
			}
		}
	}
	JOINT LowerBack
	{
		OFFSET 0 0 0
		CHANNELS 3 Zrotation Yrotation Xrotation
		JOINT Spine
		{
			OFFSET 0.05220 2.15489 0.05011
			CHANNELS 3 Zrotation Yrotation Xrotation
			JOINT Spine1
			{
				OFFSET -0.07653 2.14219 -0.05668
				CHANNELS 3 Zrotation Yrotation Xrotation
				JOINT Neck
				{
					OFFSET 0 0 0
					CHANNELS 3 Zrotation Yrotation Xrotation
					JOINT Neck1
					{
						OFFSET 0.01370 1.58638 0.01447
						CHANNELS 3 Zrotation Yrotation Xrotation
						JOINT Head
						{
							OFFSET 0.23548 1.54190 -0.21747
							CHANNELS 3 Zrotation Yrotation Xrotation
							End Site
							{
								OFFSET 0.07132 1.59823 -0.08163
							}
						}
					}
				}
				JOINT LeftShoulder
				{
					OFFSET 0 0 0
					CHANNELS 3 Zrotation Yrotation Xrotation
					JOINT LeftArm
					{
						OFFSET 3.47056 1.45357 -0.58896
						CHANNELS 3 Zrotation Yrotation Xrotation
						JOINT LeftForeArm
						{
							OFFSET 5.19069 -0.00000 0.00000
							CHANNELS 3 Zrotation Yrotation Xrotation
							JOINT LeftHand
							{
								OFFSET 3.30016 -0.00000 0.00000
								CHANNELS 3 Zrotation Yrotation Xrotation
								JOINT LeftFingerBase
								{
									OFFSET 0 0 0
									CHANNELS 3 Zrotation Yrotation Xrotation
									JOINT LeftHandIndex1
									{
										OFFSET 0.70770 -0.00000 0.00000
										CHANNELS 3 Zrotation Yrotation Xrotation
										End Site
										{
											OFFSET 0.57056 -0.00000 0.00000
										}
									}
								}
								JOINT LThumb
								{
									OFFSET 0 0 0
									CHANNELS 3 Zrotation Yrotation Xrotation
									End Site
									{
										OFFSET 0.57928 -0.00000 0.57928
									}
								}
							}
						}
					}
				}
				JOINT RightShoulder
				{
					OFFSET 0 0 0
					CHANNELS 3 Zrotation Yrotation Xrotation
					JOINT RightArm
					{
						OFFSET -2.89018 2.03305 -0.26731
						CHANNELS 3 Zrotation Yrotation Xrotation
						JOINT RightForeArm
						{
							OFFSET -5.23924 -0.00000 0.00000
							CHANNELS 3 Zrotation Yrotation Xrotation
							JOINT RightHand
							{
								OFFSET -3.32953 -0.00000 0.00000
								CHANNELS 3 Zrotation Yrotation Xrotation
								JOINT RightFingerBase
								{
									OFFSET 0 0 0
									CHANNELS 3 Zrotation Yrotation Xrotation
									JOINT RightHandIndex1
									{
										OFFSET -0.60741 -0.00000 0.00000
										CHANNELS 3 Zrotation Yrotation Xrotation
										End Site
										{
											OFFSET -0.48971 -0.00000 0.00000
										}
									}
								}
								JOINT RThumb
								{
									OFFSET 0 0 0
									CHANNELS 3 Zrotation Yrotation Xrotation
									End Site
									{
										OFFSET -0.49719 -0.00000 0.49719
									}
								}
							}
						}
					}
				}
			}
		}
	}
}
MOTION
Frames: 11
Frame Time: .0083333
9.6782 15.1579 2.8350 -0.6914 -27.7558 13.8622 0.0000 0.0000 0.0000 -19.3566 0.7477 -13.8344 12.7223 18.6796 68.2607 0.2488 -10.3742 -10.7518 1.7534 -8.3323 -23.7281 0.0000 0.0000 0.0000 13.7791 22.9812 -62.1259 -12.0317 -18.4040 66.0894 -0.7253 -7.3074 -20.3622 -0.2964 -3.5007 9.6760 2.8375 -3.3668 18.5879 -1.9174 -4.2476 12.9470 -2.9774 -1.9837 3.2483 -0.6164 -0.2293 5.4806 8.8716 1.0893 -19.0545 2.8940 -0.2354 -6.7420 0.0000 -0.0000 0.0000 -61.0384 -49.9746 37.6600 59.4887 -56.1721 -33.9160 -0.0000 0.0000 -83.1858 37.3935 5.9837 4.5559 -7.1250 0.0000 -0.0000 9.0853 37.3563 -1.7263 0.0000 -0.0000 0.0000 72.4099 -8.8207 48.6195 -46.7363 51.5913 -23.5916 0.0000 0.0000 3.0577 -14.3651 -10.4676 2.6640 7.1250 -0.0000 -0.0000 11.1635 -40.5258 1.2493
9.6304 15.1399 2.9154 -0.8597 -27.6964 13.7564 0.0000 0.0000 0.0000 -18.8084 0.3020 -15.4404 13.7783 19.0454 71.5262 0.1412 -9.9764 -9.1472 1.5951 -7.9663 -22.6118 0.0000 0.0000 0.0000 14.1585 22.9056 -61.7824 -12.2028 -18.4751 66.6301 -0.8051 -7.1420 -21.0022 -0.2749 -3.3726 9.3180 3.1535 -3.3517 18.8561 -1.8421 -4.1817 13.0561 -3.0761 -1.9349 3.2279 -0.6618 -0.3197 5.6939 8.8309 0.9704 -19.2808 2.9032 -0.2982 -6.8463 0.0000 0.0000 0.0000 -61.0557 -50.3885 37.6335 59.4061 -56.1496 -33.8474 -0.0000 0.0000 -83.2105 37.3791 5.9748 4.5468 -7.1250 0.0000 -0.0000 9.0722 37.3443 -1.7264 0.0000 0.0000 0.0000 72.2714 -8.4609 48.7967 -46.6486 51.5510 -23.5229 0.0000 0.0000 3.0729 -14.3981 -10.4169 2.6576 7.1250 -0.0000 -0.0000 11.1243 -40.4774 1.2582
9.5839 15.1189 2.9926 -1.0544 -27.6644 13.6397 0.0000 0.0000 0.0000 -18.2037 -0.1239 -17.2124 14.9054 19.3660 74.9515 0.0711 -9.7250 -7.9771 1.4722 -7.6672 -21.7077 0.0000 0.0000 0.0000 14.5877 22.8225 -61.4326 -12.3771 -18.5456 67.1792 -0.8850 -7.0014 -21.6385 -0.2511 -3.2243 8.9038 3.4607 -3.3230 19.1471 -1.7614 -4.0981 13.1765 -3.1670 -1.8780 3.2126 -0.7064 -0.4071 5.9129 8.7890 0.8557 -19.5174 2.9123 -0.3590 -6.9555 0.0000 0.0000 0.0000 -61.0405 -50.8092 37.5905 59.3636 -56.1380 -33.8121 -0.0000 0.0000 -83.2453 37.3554 5.9631 4.5340 -7.1250 0.0000 -0.0000 9.0509 37.3280 -1.7259 0.0000 0.0000 0.0000 72.1094 -8.0723 48.9725 -46.5840 51.5213 -23.4723 0.0000 0.0000 3.0876 -14.3905 -10.3761 2.6459 7.1250 -0.0000 -0.0000 11.1223 -40.4357 1.2696
9.5389 15.0948 3.0669 -1.2612 -27.6592 13.4952 0.0000 0.0000 0.0000 -17.5563 -0.5115 -19.1248 16.0883 19.6291 78.4945 0.0290 -9.6498 -7.2558 1.3800 -7.4336 -21.0065 0.0000 0.0000 0.0000 15.0522 22.7284 -61.0676 -12.5566 -18.6162 67.7425 -0.9655 -6.8847 -22.2755 -0.2264 -3.0624 8.4525 3.7459 -3.2853 19.4696 -1.6798 -4.0046 13.3088 -3.2457 -1.8176 3.1987 -0.7544 -0.4861 6.1330 8.7482 0.7521 -19.7574 2.9221 -0.4141 -7.0669 0.0000 -0.0000 0.0000 -60.9718 -51.2251 37.5187 59.3715 -56.1401 -33.8187 -0.0000 0.0000 -83.2831 37.3213 5.9719 4.5351 -7.1250 0.0000 -0.0000 9.0224 37.3365 -1.7185 0.0000 -0.0000 0.0000 71.9223 -7.6632 49.1473 -46.5591 51.5098 -23.4528 0.0000 0.0000 3.0982 -14.3374 -10.3506 2.6293 7.1250 -0.0000 -0.0000 11.1628 -40.4053 1.2828
9.4950 15.0680 3.1385 -1.4773 -27.6830 13.3140 0.0000 0.0000 0.0000 -16.8666 -0.8423 -21.1629 17.3133 19.8261 82.1228 0.0064 -9.7504 -6.9444 1.3213 -7.2800 -20.5475 0.0000 0.0000 0.0000 15.5493 22.6298 -60.6738 -12.7409 -18.6866 68.3187 -1.0465 -6.7960 -22.9149 -0.2015 -2.8903 7.9735 4.0022 -3.2397 19.8303 -1.5983 -3.9031 13.4531 -3.3092 -1.7552 3.1830 -0.8129 -0.5545 6.3492 8.7175 0.6625 -19.9907 2.9360 -0.4618 -7.1764 0.0000 -0.0000 0.0000 -60.8428 -51.6288 37.4146 59.4337 -56.1571 -33.8703 -0.0000 0.0000 -83.3117 37.2784 5.9904 4.5421 -7.1250 0.0000 -0.0000 8.9872 37.3563 -1.7072 0.0000 -0.0000 0.0000 71.7107 -7.2413 49.3183 -46.5790 51.5190 -23.4684 0.0000 0.0000 3.0935 -14.2507 -10.3384 2.6097 7.1250 -0.0000 -0.0000 11.2349 -40.3856 1.2969
9.4521 15.0388 3.2075 -1.7015 -27.7272 13.0911 0.0000 0.0000 0.0000 -16.1298 -1.1110 -23.3178 18.5675 19.9507 85.8083 -0.0038 -10.0069 -6.9531 1.2890 -7.1941 -20.2917 0.0000 0.0000 0.0000 16.0779 22.5242 -60.2419 -12.9283 -18.7561 68.9027 -1.1278 -6.7383 -23.5569 -0.1778 -2.7160 7.4891 4.2336 -3.1896 20.2324 -1.5206 -3.7974 13.6094 -3.3628 -1.6924 3.1636 -0.8776 -0.6139 6.5506 8.7053 0.5859 -20.2026 2.9559 -0.5033 -7.2774 0.0000 0.0000 0.0000 -60.6505 -52.0163 37.2847 59.5500 -56.1888 -33.9669 -0.0000 0.0000 -83.3236 37.2288 6.0177 4.5544 -7.1250 0.0000 -0.0000 8.9469 37.3865 -1.6928 0.0000 0.0000 0.0000 71.4896 -6.8158 49.4716 -46.6451 51.5494 -23.5202 0.0000 0.0000 3.0702 -14.1416 -10.3376 2.5887 7.1250 -0.0000 -0.0000 11.3289 -40.3757 1.3108
9.4096 15.0080 3.2738 -1.9377 -27.7815 12.8336 0.0000 0.0000 0.0000 -15.3331 -1.3169 -25.5917 19.8376 19.9994 89.5251 -0.0069 -10.3914 -7.1744 1.2844 -7.1816 -20.2546 0.0000 0.0000 0.0000 16.6391 22.4138 -59.7721 -13.1167 -18.8239 69.4877 -1.2089 -6.7141 -24.1999 -0.1562 -2.5469 7.0198 4.4439 -3.1372 20.6695 -1.4462 -3.6898 13.7751 -3.4081 -1.6300 3.1406 -0.9392 -0.6677 6.7297 8.7147 0.5187 -20.3824 2.9810 -0.5408 -7.3646 0.0000 -0.0000 0.0000 -60.3964 -52.3890 37.1287 59.7105 -56.2323 -34.1004 -0.0000 0.0000 -83.3117 37.1775 6.0541 4.5733 -7.1250 0.0000 -0.0000 8.9058 37.4276 -1.6758 0.0000 -0.0000 0.0000 71.2707 -6.3953 49.5955 -46.7544 51.5996 -23.6058 0.0000 0.0000 3.0307 -14.0184 -10.3650 2.5720 7.1250 -0.0000 -0.0000 11.4409 -40.3928 1.3193
9.3668 14.9760 3.3375 -2.1996 -27.8400 12.5532 0.0000 0.0000 0.0000 -14.4510 -1.4526 -27.9871 21.1099 19.9704 93.2466 -0.0085 -10.8919 -7.5072 1.3009 -7.2260 -20.3866 0.0000 0.0000 0.0000 17.2455 22.3049 -59.2605 -13.3036 -18.8890 70.0657 -1.2898 -6.7229 -24.8435 -0.1376 -2.3905 6.5860 4.6444 -3.0821 21.1356 -1.3739 -3.5780 13.9475 -3.4509 -1.5663 3.1139 -0.9881 -0.7205 6.8809 8.7466 0.4559 -20.5238 3.0100 -0.5774 -7.4346 -0.0000 0.0000 0.0000 -60.0815 -52.7476 36.9561 59.9018 -56.2837 -34.2594 -0.0000 0.0000 -83.2826 37.1274 6.0980 4.5978 -7.1250 0.0000 -0.0000 8.8664 37.4782 -1.6571 -0.0000 0.0000 0.0000 71.0703 -5.9881 49.6757 -46.8973 51.6648 -23.7178 0.0000 0.0000 2.9752 -13.9024 -10.4179 2.5627 7.1250 -0.0000 -0.0000 11.5524 -40.4361 1.3200
9.3234 14.9430 3.3988 -2.4869 -27.8922 12.2645 0.0000 0.0000 0.0000 -13.4770 -1.5233 -30.5150 22.3700 19.8648 96.9444 -0.0113 -11.4573 -7.8697 1.3345 -7.3150 -20.6520 0.0000 0.0000 0.0000 17.8889 22.1993 -58.7231 -13.4875 -18.9512 70.6330 -1.3705 -6.7590 -25.4854 -0.1223 -2.2548 6.2103 4.8400 -3.0248 21.6142 -1.3030 -3.4623 14.1213 -3.4938 -1.5011 3.0857 -1.0164 -0.7769 7.0112 8.7977 0.3923 -20.6327 3.0412 -0.6164 -7.4904 -0.0000 -0.0000 0.0000 -59.7198 -53.0943 36.7772 60.1101 -56.3392 -34.4327 -0.0000 0.0000 -83.2465 37.0817 6.1331 4.6165 -7.1250 0.0000 -0.0000 8.8299 37.5181 -1.6415 -0.0000 -0.0000 0.0000 70.9026 -5.6020 49.6983 -47.0597 51.7385 -23.8453 0.0000 0.0000 2.9106 -13.8062 -10.4900 2.5617 7.1250 -0.0000 -0.0000 11.6508 -40.5004 1.3129
9.2789 14.9091 3.4578 -2.8024 -27.9309 11.9803 0.0000 0.0000 0.0000 -12.4066 -1.5299 -33.1767 23.6020 19.6860 100.5848 -0.0152 -12.0497 -8.2403 1.3887 -7.4560 -21.0735 0.0000 0.0000 0.0000 18.5665 22.0976 -58.1704 -13.6676 -19.0101 71.1868 -1.4504 -6.8187 -26.1197 -0.1099 -2.1373 5.8853 5.0394 -2.9670 22.0892 -1.2342 -3.3442 14.2951 -3.5429 -1.4340 3.0620 -1.0138 -0.8390 7.1177 8.8612 0.3254 -20.7136 3.0707 -0.6594 -7.5326 -0.0000 -0.0000 0.0000 -59.3181 -53.4319 36.5929 60.3220 -56.3951 -34.6091 -0.0000 0.0000 -83.2108 37.0481 6.1586 4.6299 -7.1250 0.0000 -0.0000 8.8030 37.5472 -1.6300 -0.0000 -0.0000 0.0000 70.7774 -5.2383 49.6572 -47.2282 51.8145 -23.9777 0.0000 0.0000 2.8443 -13.7386 -10.5653 2.5668 7.1250 -0.0000 -0.0000 11.7256 -40.5702 1.3011
9.2334 14.8743 3.5150 -3.1437 -27.9593 11.7158 0.0000 0.0000 0.0000 -11.2451 -1.4701 -35.9801 24.7916 19.4404 104.1362 -0.0230 -12.6798 -8.5910 1.4520 -7.6167 -21.5559 0.0000 0.0000 0.0000 19.2679 22.0068 -57.6215 -13.8444 -19.0662 71.7286 -1.5287 -6.9002 -26.7399 -0.0993 -2.0321 5.5943 5.2397 -2.9090 22.5421 -1.1660 -3.2252 14.4633 -3.5951 -1.3662 3.0455 -0.9884 -0.9048 7.2085 8.9307 0.2565 -20.7747 3.0979 -0.7048 -7.5656 -0.0000 0.0000 0.0000 -58.8835 -53.7557 36.3893 60.5224 -56.4475 -34.7761 -0.0000 0.0000 -83.1876 37.0280 6.1769 4.6402 -7.1250 0.0000 -0.0000 8.7872 37.5682 -1.6225 -0.0000 0.0000 0.0000 70.6868 -4.8996 49.5633 -47.3945 51.8890 -24.1085 0.0000 0.0000 2.7819 -13.7077 -10.6508 2.5812 7.1250 -0.0000 -0.0000 11.7709 -40.6533 1.2818
